<?xml version="1.0" encoding="utf-8"?>
<!-- Generator: Adobe Illustrator 22.1.0, SVG Export Plug-In . SVG Version: 6.00 Build 0)  -->
<svg version="1.1" id="Capa_1" xmlns="http://www.w3.org/2000/svg" xmlns:xlink="http://www.w3.org/1999/xlink" x="0px" y="0px"
	 viewBox="0 0 27 27" style="enable-background:new 0 0 27 27;" xml:space="preserve">
<style type="text/css">
	.st0{fill:#FFFFFF;}
</style>
<g>
	<path class="st0" d="M26.5,1.9c-0.1-0.1-0.3-0.1-0.4-0.1L0.6,13.7c-0.1,0.1-0.2,0.2-0.2,0.4c0,0.2,0.1,0.3,0.2,0.4L7.8,18
		c0.1,0.1,0.3,0.1,0.4,0l7-5.3l-5.5,5.7c-0.1,0.1-0.1,0.2-0.1,0.3l0.5,7.2c0,0.2,0.1,0.3,0.3,0.3c0,0,0.1,0,0.1,0
		c0.1,0,0.2,0,0.3-0.1l3.8-4.4l4.7,2.3c0.1,0,0.2,0.1,0.3,0c0.1,0,0.2-0.1,0.2-0.2l6.7-21.3C26.7,2.2,26.7,2,26.5,1.9z"/>
</g>
</svg>
